<?xml version="1.0" encoding="utf-8"?>
<!-- Generator: Adobe Illustrator 26.1.0, SVG Export Plug-In . SVG Version: 6.00 Build 0)  -->
<svg version="1.1" id="圖層_1" xmlns="http://www.w3.org/2000/svg" xmlns:xlink="http://www.w3.org/1999/xlink" x="0px" y="0px"
	 viewBox="0 0 315.8 75.3" style="enable-background:new 0 0 315.8 75.3;" xml:space="preserve">
<style type="text/css">
	.st0{fill:#6CC8E4;}
	.st1{fill:#2F435D;}
	.st2{fill:#476C88;}
</style>
<g id="Layer_2">
	<g id="Light_BG_Export">
		<g id="Logo_icon">
			<path class="st0" d="M89.6,16.9v21.9c0,1.8-1.5,3.3-3.3,3.3H73.4c-0.8,0-1.4,0.6-1.4,1.4v10.1c0,1.8-1.5,3.3-3.3,3.3c0,0,0,0,0,0
				H57.8c-1.8,0-3.3-1.5-3.3-3.3V42.7c0-1.8,1.5-3.3,3.3-3.3h27.7c0.8,0,1.4-0.6,1.4-1.4V17.7c0-0.8-0.6-1.4-1.4-1.4H65.2
				c-0.8,0-1.4,0.6-1.4,1.4v13.4h-2.8V16.9c0-1.8,1.5-3.3,3.3-3.3h21.9C88.1,13.6,89.6,15.1,89.6,16.9
				C89.6,16.9,89.6,16.9,89.6,16.9z"/>
			<path class="st1" d="M51.7,38v20.3c0,0.8,0.6,1.4,1.4,1.4h20.3c0.8,0,1.4-0.6,1.4-1.4V44.9h2.7v14.2c0,1.8-1.5,3.3-3.3,3.3H52.3
				c-1.8,0-3.3-1.5-3.3-3.3V37.2c0-1.8,1.5-3.3,3.3-3.3l0,0h12.9c0.8,0,1.4-0.6,1.4-1.4V22.4c0-1.8,1.5-3.3,3.3-3.3h10.9
				c1.8,0,3.3,1.5,3.3,3.3v10.9c0,1.8-1.5,3.3-3.3,3.3H53.1C52.4,36.6,51.8,37.2,51.7,38z"/>
		</g>
		<path class="st1" d="M96.6,22.8h5.9v26.8h16.6v5H96.6V22.8z"/>
		<path class="st1" d="M121.2,25.3c-0.7-0.6-1.1-1.5-1-2.4c0-0.9,0.4-1.8,1-2.4c0.7-0.7,1.6-1,2.6-1c1,0,1.9,0.3,2.6,0.9
			c0.7,0.6,1.1,1.4,1,2.3c0,0.9-0.3,1.9-1,2.5c-0.7,0.7-1.6,1.1-2.6,1C122.8,26.4,121.9,26,121.2,25.3z M120.9,30.3h5.7v24.2h-5.7
			V30.3z"/>
		<path class="st1" d="M152.8,32.7c1.9,1.8,2.8,4.4,2.8,7.9v13.9h-5.7V41.4c0-2.1-0.5-3.7-1.5-4.8c-1.1-1.1-2.7-1.7-4.3-1.6
			c-1.8-0.1-3.6,0.6-4.9,1.9c-1.2,1.3-1.8,3.1-1.8,5.4v12.3h-5.7V30.3h5.4v3.1c0.9-1.1,2.2-2,3.5-2.5c1.5-0.6,3.2-0.9,4.8-0.9
			C148.5,30,151,30.9,152.8,32.7z"/>
		<path class="st1" d="M175.9,54.6l-6.2-8.4l-6.3,8.4h-6.3l9.4-12.3l-9-11.9h6.3l5.9,7.9l5.9-7.9h6.1l-9.1,11.8l9.5,12.4H175.9z"/>
		<path class="st2" d="M207.1,20.9v33.7h-5.4v-3.1c-0.9,1.1-2.1,2-3.5,2.6c-1.4,0.6-3,0.9-4.5,0.9c-2.2,0-4.4-0.5-6.3-1.5
			c-1.8-1-3.4-2.5-4.4-4.4c-1.1-2-1.6-4.2-1.6-6.5c0-2.3,0.5-4.5,1.6-6.5c1-1.8,2.5-3.3,4.4-4.4c1.9-1.1,4.1-1.6,6.2-1.6
			c1.5,0,3,0.3,4.4,0.8c1.3,0.5,2.5,1.4,3.4,2.5V20.9H207.1z M198,49.1c1.1-0.6,2-1.5,2.6-2.7c0.7-1.2,1-2.6,1-4c0-1.4-0.3-2.8-1-4
			c-0.6-1.1-1.5-2-2.6-2.7c-2.3-1.2-5.1-1.2-7.4,0c-1.1,0.6-2,1.5-2.6,2.7c-0.6,1.2-1,2.6-0.9,4c0,1.4,0.3,2.8,1,4
			c0.6,1.1,1.5,2,2.6,2.7C193,50.3,195.8,50.3,198,49.1L198,49.1z"/>
		<path class="st2" d="M216.5,53.3c-1.9-1-3.5-2.6-4.6-4.4c-1.1-2-1.7-4.2-1.7-6.4c0-2.2,0.5-4.5,1.7-6.4c1.1-1.9,2.7-3.4,4.6-4.4
			c4.2-2.1,9.1-2.1,13.3,0c1.9,1,3.5,2.5,4.6,4.4c1.1,1.9,1.7,4.2,1.7,6.4c0,2.2-0.5,4.5-1.7,6.4c-1.1,1.9-2.7,3.4-4.6,4.4
			C225.7,55.4,220.7,55.4,216.5,53.3z M228.3,47.9c1.4-1.5,2.1-3.5,2-5.5c0.1-2-0.6-4-2-5.5c-1.4-1.4-3.2-2.2-5.2-2.1
			c-1.9-0.1-3.8,0.7-5.1,2.1c-1.4,1.5-2.1,3.5-2,5.5c-0.1,2,0.6,4,2,5.5c1.3,1.4,3.2,2.1,5.1,2.1C225.1,50.1,227,49.3,228.3,47.9z"
			/>
		<path class="st2" d="M253.8,53.2c-0.7,0.6-1.6,1-2.5,1.2c-1,0.3-2,0.4-3,0.4c-2.7,0-4.7-0.7-6.2-2.1c-1.5-1.4-2.2-3.4-2.2-6.1V35
			h-4v-4.5h4V25h5.7v5.5h6.5V35h-6.5v11.5c-0.1,1,0.2,1.9,0.9,2.7c0.7,0.7,1.6,1,2.5,0.9c1.1,0,2.3-0.3,3.2-1L253.8,53.2z"/>
	</g>
</g>
</svg>
