<svg xmlns="http://www.w3.org/2000/svg" viewBox="0 0 315.78 75.3"><defs><style>.cls-1{fill:#6cc8e4;}.cls-2{fill:#2f435d;}.cls-3{fill:#476c88;}</style></defs><g id="Layer_2" data-name="Layer 2"><g id="Light_BG_Export" data-name="Light BG Export"><g id="Logo_icon" data-name="Logo icon"><path class="cls-1" d="M62.61,5.1V38.89a5.1,5.1,0,0,1-5.1,5.1H37.64a2.12,2.12,0,0,0-2.11,2.11V61.74a5.1,5.1,0,0,1-5.1,5.1H13.56a5.1,5.1,0,0,1-5.1-5.1V44.86a5.1,5.1,0,0,1,5.1-5.1h42.7a2.12,2.12,0,0,0,2.12-2.11V6.34a2.12,2.12,0,0,0-2.12-2.11H25a2.12,2.12,0,0,0-2.11,2.11V27.07H18.61V5.1A5.1,5.1,0,0,1,23.71,0h33.8A5.1,5.1,0,0,1,62.61,5.1Z"/><path class="cls-2" d="M4.23,37.64V69a2.12,2.12,0,0,0,2.12,2.11H37.66A2.12,2.12,0,0,0,39.77,69V48.28H44V70.2a5.1,5.1,0,0,1-5.1,5.1H5.1A5.1,5.1,0,0,1,0,70.2V36.4a5.1,5.1,0,0,1,5.1-5.1H25a2.12,2.12,0,0,0,2.11-2.12V13.56a5.1,5.1,0,0,1,5.1-5.1H49.05a5.1,5.1,0,0,1,5.1,5.1V30.43a5.1,5.1,0,0,1-5.1,5.1H6.35A2.12,2.12,0,0,0,4.23,37.64Z"/></g><path class="cls-2" d="M73.37,14.21h9.1v41.3h25.62v7.7H73.37Z"/><path class="cls-2" d="M111.31,18.16a4.92,4.92,0,0,1-1.61-3.74,4.92,4.92,0,0,1,1.61-3.75,5.65,5.65,0,0,1,4-1.5,5.75,5.75,0,0,1,4,1.43,4.61,4.61,0,0,1,1.61,3.61,5.26,5.26,0,0,1-1.57,3.88,5.46,5.46,0,0,1-4,1.58A5.66,5.66,0,0,1,111.31,18.16Zm-.42,7.67h8.75V63.21h-8.75Z"/><path class="cls-2" d="M160.1,29.54q4.28,4.13,4.27,12.25V63.21h-8.75V42.91q0-4.9-2.31-7.39A8.52,8.52,0,0,0,146.73,33a10.09,10.09,0,0,0-7.63,2.9c-1.86,1.94-2.8,4.73-2.8,8.37v18.9h-8.75V25.83h8.33v4.83a13.63,13.63,0,0,1,5.46-3.92,19.58,19.58,0,0,1,7.42-1.33C153.48,25.41,157.25,26.78,160.1,29.54Z"/><path class="cls-2" d="M195.73,63.21l-9.59-13-9.66,13h-9.66l14.56-19L167.45,25.83h9.73l9.17,12.25,9.17-12.25H205L191,44.1,205.6,63.21Z"/><path class="cls-3" d="M243.82,11.27V63.21h-8.4V58.38a13.56,13.56,0,0,1-5.35,4,18.24,18.24,0,0,1-7,1.33,19.76,19.76,0,0,1-9.69-2.38,17.17,17.17,0,0,1-6.76-6.76,20.23,20.23,0,0,1-2.45-10,20,20,0,0,1,2.45-10,17.13,17.13,0,0,1,6.76-6.72A19.65,19.65,0,0,1,223,25.41a17.73,17.73,0,0,1,6.79,1.26,13.56,13.56,0,0,1,5.25,3.78V11.27Zm-14.07,43.5a10.4,10.4,0,0,0,4-4.09,12.56,12.56,0,0,0,1.47-6.16,12.5,12.5,0,0,0-1.47-6.16,10.36,10.36,0,0,0-4-4.1,12,12,0,0,0-11.34,0,10.36,10.36,0,0,0-4,4.1A12.5,12.5,0,0,0,213,44.52a12.56,12.56,0,0,0,1.47,6.16,10.4,10.4,0,0,0,4,4.09,11.88,11.88,0,0,0,11.34,0Z"/><path class="cls-3" d="M258.31,61.25a17.89,17.89,0,0,1-7.1-6.83,19.22,19.22,0,0,1-2.56-9.9,19,19,0,0,1,2.56-9.87,17.86,17.86,0,0,1,7.1-6.79,22.69,22.69,0,0,1,20.51,0,17.88,17.88,0,0,1,7.11,6.79,19.1,19.1,0,0,1,2.55,9.87,19.31,19.31,0,0,1-2.55,9.9,17.91,17.91,0,0,1-7.11,6.83,22.69,22.69,0,0,1-20.51,0ZM276.51,53a11.6,11.6,0,0,0,3.15-8.47,11.58,11.58,0,0,0-3.15-8.47,10.68,10.68,0,0,0-8-3.22,10.54,10.54,0,0,0-7.94,3.22,11.65,11.65,0,0,0-3.12,8.47A11.66,11.66,0,0,0,260.59,53a10.58,10.58,0,0,0,7.94,3.22A10.72,10.72,0,0,0,276.51,53Z"/><path class="cls-3" d="M315.78,61.18A10.3,10.3,0,0,1,312,63.07a16.87,16.87,0,0,1-4.66.63q-6.15,0-9.52-3.22T294.5,51.1v-18h-6.16v-7h6.16V17.57h8.75v8.54h10v7h-10V50.89a5.94,5.94,0,0,0,1.33,4.16,5,5,0,0,0,3.85,1.44,7.71,7.71,0,0,0,4.9-1.54Z"/></g></g></svg>